Genre:Action | Drama | Thriller
Language:English
IMDb:http://www.imdb.com/title/tt1630564/
Source:DVDSCR IMAGINE Thx.


Format : MPEG-4
Format profile : Base Media
Codec ID : isom
File size : 1 013 MiB
Duration : 1h 39mn
Overall bit rate : 1 423 Kbps
Movie name : Sacrifice 2011 DvDScr x264 Feel-Free


Video
Format settings, CABAC : Yes
Format settings, ReFrames : 4 frames
Codec ID : avc1
Codec ID/Info : Advanced Video Coding
Duration : 1h 39mn
Bit rate mode : Variable
Bit rate : 1 253 Kbps
Width : 720 pixels
Height : 384 pixels
Display aspect ratio : 1.875
Frame rate mode : Constant
Frame rate : 23.976 fps
Color space : YUV
Chroma subsampling : 4:2:0
Bit depth : 8 bits
Scan type : Progressive
Bits/(Pixel*Frame) : 0.189
Stream size : 891 MiB (88%)
Writing library : x264

Audio
ID : 2
Format : AAC
Format/Info : Advanced Audio Codec
Format version : Version 4
Format profile : LC
Codec ID : 40
Duration : 1h 39mn
Bit rate mode : Variable
Bit rate : 164 Kbps
Channel(s) : 2 channels
Channel positions : Front: L R
Sampling rate : 48.0 KHz
Stream size : 117 MiB (12%)


Plot:
A tough undercover cop inadvertently gets involved in a dangerous heroin ring when a young defector of the drug trade leaves his five year-old sister in his care